<svg xmlns="http://www.w3.org/2000/svg" width="48px" height="48px" viewBox="0 0 24 24" color="black" class="dsbq dsaz">
    <path
        d="M20.031 3.5v4.68a3.183 3.183 0 0 1-2.538 3.12v9.97a.75.75 0 0 1-1.5 0V11.3a3.183 3.183 0 0 1-2.538-3.113V3.5a.75.75 0 0 1 1.5 0v4.684a1.679 1.679 0 0 0 1.038 1.549V3.522a.75.75 0 0 1 1.5 0v6.211a1.678 1.678 0 0 0 1.038-1.549V3.5a.75.75 0 0 1 1.5 0zm-8.108 3.633a3.988 3.988 0 0 1-3.173 4.154v9.98a.75.75 0 0 1-1.5 0v-9.98a3.989 3.989 0 0 1-3.174-4.154C4.076 4.706 5.687 2 8 2s3.923 2.706 3.923 5.133zm-1.5 0C10.423 5.3 9.223 3.5 8 3.5S5.576 5.3 5.576 7.133a2.44 2.44 0 1 0 4.847 0z"
        id="Layer_3" data-name="Layer 3"></path>
</svg>