<svg xmlns="http://www.w3.org/2000/svg" width="48px" height="48px" viewBox="0 0 24 24" color="black" class="dsbq dsaz">
    <path
        d="M21.91 2.54c-.11 3.07-.7 10.18-3.84 14.37a8 8 0 0 1-1.95 1.93c-.13.1-.28.18-.42.27l-.19.12a8 8 0 0 1-3.88 1 8.44 8.44 0 0 1-1.49-.14 7.63 7.63 0 0 1-3.85-2 33.91 33.91 0 0 0-1.95 3.64.76.76 0 0 1-.68.43.71.71 0 0 1-.32-.07.74.74 0 0 1-.36-1C7 12.57 12 9.52 16.42 7.33a.75.75 0 0 1 1 .34.74.74 0 0 1-.34 1 24.12 24.12 0 0 0-9.95 8.2 6.26 6.26 0 0 0 3.28 1.77 7.28 7.28 0 0 0 1.22.11 6.41 6.41 0 0 0 3.14-.83h.05l.1-.06.32-.2a6.33 6.33 0 0 0 1.6-1.66c2.32-3 3.16-8 3.43-11.28-2.23 1.13-4.91 1.18-7 1.21-.56 0-1.09 0-1.52.05-3.92.29-6.75 3.22-6.49 6.8A6.85 6.85 0 0 0 5.47 14c-.37.49-.72 1-1.06 1.52a7.52 7.52 0 0 1-.64-2.62c-.29-4.62 3.35-8.06 7.86-8.39 2.46-.19 7 .33 9.51-2.25a.47.47 0 0 1 .34-.14.42.42 0 0 1 .43.42z">
    </path>
</svg>