<svg xmlns="http://www.w3.org/2000/svg" width="48px" height="48px" viewBox="0 0 40 40" color="black" class="dsbq dsaz">
    <path
        d="M22.24 36.47c-3-.1-9.79-.67-13.82-3.7a7.6 7.6 0 0 1-1.85-1.86 3.42 3.42 0 0 1-.26-.4l-.12-.18a7.55 7.55 0 0 1-.85-5.17 7.34 7.34 0 0 1 1.88-3.67A35.39 35.39 0 0 0 3.7 19.6a.75.75 0 0 1-.36-1 .74.74 0 0 1 1-.36 32.87 32.87 0 0 1 4 2.21c.16.1.32.22.47.33a24.66 24.66 0 0 1 8.79 10.4.75.75 0 0 1-.34 1 .76.76 0 0 1-.33.08.73.73 0 0 1-.67-.42 23 23 0 0 0-7.83-9.52 5.86 5.86 0 0 0-1.67 3.1 6.12 6.12 0 0 0 .68 4.16v.05l.06.09.18.28v.05a6.3 6.3 0 0 0 1.48 1.48c2.93 2.2 7.59 3 10.76 3.28a15.88 15.88 0 0 1-1.13-6.67v-1.46c-.26-3.59-2.82-6.19-6.08-6.19h-.39a5.43 5.43 0 0 0-1.07.17c-.48-.38-1-.74-1.48-1.09a7.84 7.84 0 0 1 2.51-.57h.49c4.19 0 7.27 3.4 7.58 7.58.17 2.36-.32 6.77 2.16 9.14a.42.42 0 0 1-.27.75zm14.32-12a2.91 2.91 0 0 1-1.53.8 2.78 2.78 0 0 1-.8 1.52 2.93 2.93 0 0 1-4.15 0 2.93 2.93 0 0 1-.46-3.55l-2.53-2.53a2.26 2.26 0 0 1-.89.19 2.14 2.14 0 0 1-1.53-.63l-.91-.91a2.24 2.24 0 0 0-1.49-.57h-.06a9.31 9.31 0 0 1-6.48-2.83c-3.35-3.36-3.79-8.38-1-11.21s7.85-2.39 11.2 1a9.18 9.18 0 0 1 2.82 6.9 2 2 0 0 0 .56 1.61l.68.68a2.17 2.17 0 0 1 .44 2.41L33 19.83a2.94 2.94 0 0 1 3.56 4.61zm-9.89-5.26l2.3-2.3a.66.66 0 0 0 0-.94l-.68-.68a3.52 3.52 0 0 1-1-2.76 7.77 7.77 0 0 0-2.38-5.75c-2.77-2.77-6.84-3.2-9.08-1s-1.81 6.32 1 9.09a7.83 7.83 0 0 0 5.47 2.39 3.54 3.54 0 0 1 2.53 1l.92.91a.67.67 0 0 0 .92.01zm8.83 2.17a1.45 1.45 0 0 0-2 0l-.53.53-3.42-3.42-1.26 1.26 3.42 3.42-.53.53a1.44 1.44 0 1 0 2 2 1.38 1.38 0 0 0 .41-1.11l-.06-.86.86.06a1.46 1.46 0 0 0 1.12-.41 1.44 1.44 0 0 0-.01-2.03z">
    </path>
</svg>