<svg xmlns="http://www.w3.org/2000/svg" width="48px" height="48px" viewBox="0 0 40 40" color="black" class="dsbq dsaz">
    <path
        d="M18.72 31.09a6.92 6.92 0 0 1-4.18-1.21.75.75 0 1 1 .88-1.21 6.34 6.34 0 0 0 4.55.84 7.83 7.83 0 0 0 4.39-2.15 8.87 8.87 0 0 1 3.36-1.78.75.75 0 1 1 .3 1.47 7.25 7.25 0 0 0-2.64 1.41A9.34 9.34 0 0 1 20.16 31a12.1 12.1 0 0 1-1.44.09zm17.39-4.37c0 .11-.25 2.6-4.06 3.15a8.61 8.61 0 0 0-4.89 2.57l-.09.09a17 17 0 0 1-3.64 2.59 15.16 15.16 0 0 1-5.07 1h-.42c-4.63-.28-7.5-3-7.85-5.41a12.52 12.52 0 0 1-.17-2.91v-.25a11.22 11.22 0 0 1-5.85-9.73 9.84 9.84 0 0 1 6.15-9.42 17 17 0 0 0-2-.95.74.74 0 0 1-.47-.63.76.76 0 0 1 .37-.71 8.2 8.2 0 0 1 6.27-1c1.36-1.44 2.81-1.68 5.79-1.07a.75.75 0 0 1 .57.54.76.76 0 0 1-.22.76 3.75 3.75 0 0 0-1.3 1.76.81.81 0 0 1 .16 0c5.9.77 9.57 5 9.58 11.13v.53a14.65 14.65 0 0 1 3.56 1.17c1.25.64 3.39 2 3.57 3.72a20.7 20.7 0 0 1 .01 3.07zM10.33 6.78a6.35 6.35 0 0 1 2.49 1.92.75.75 0 0 1 0 .8 4.69 4.69 0 0 0-.23 4c.78-1.48 1.77-3 2.78-3.48a.67.67 0 0 1 .37-.07 13.08 13.08 0 0 1 2.58.56c.6.18 1.22.36 1.83.49A3.13 3.13 0 0 0 18 8.3a.75.75 0 0 1-.44-.82 4.41 4.41 0 0 1 .92-2.15c-1.8-.23-2.47.16-3.31 1.2a.77.77 0 0 1-.92.2 5.53 5.53 0 0 0-3.92.05zM10.15 26a5.39 5.39 0 0 1 1.36-2.59l.36-.35c1.41-1.43 3.17-3.2 8.64-4.31a20.9 20.9 0 0 1 7-.21v-.27c0-4.67-2.36-8-6.4-9.24a5.17 5.17 0 0 1 .62 2.93.72.72 0 0 1-.26.53.75.75 0 0 1-.57.18 18.6 18.6 0 0 1-2.98-.67 14.63 14.63 0 0 0-2-.5 10.87 10.87 0 0 0-2.44 3.73.72.72 0 0 1-.51.42h-.16a.76.76 0 0 1-.48-.17c-1.83-1.51-1.71-4.13-1.15-5.79a8.4 8.4 0 0 0-5.56 8.19A9.64 9.64 0 0 0 10.15 26zm24.44-2.2c-.07-.72-1.16-1.72-2.77-2.55a18.56 18.56 0 0 0-11-1.08c-5 1-6.54 2.55-7.88 3.9l-.37.36a5.19 5.19 0 0 0-1.13 3.41V28a10.13 10.13 0 0 0 .15 2.54c.27 1.86 2.76 3.91 6.46 4.13a13.16 13.16 0 0 0 4.8-.9 15.24 15.24 0 0 0 3.22-2.33 10.19 10.19 0 0 1 5.79-3c2.56-.37 2.77-1.73 2.78-1.79a19.77 19.77 0 0 0-.05-2.85z">
    </path>
</svg>