<svg xmlns="http://www.w3.org/2000/svg" width="48px" height="48px" viewBox="0 0 24 24" color="black" class="dsbq dsaz">
    <path
        d="M21.52 11.87l-2.44-3.48A2.67 2.67 0 0 0 17 7.26V4a1 1 0 0 0-1-1H3a1 1 0 0 0-1 1v10.5a1 1 0 0 0 1 1h1.29v2.08A1.72 1.72 0 0 0 6 19.29a2.75 2.75 0 0 0 5.5 0h3a2.75 2.75 0 0 0 5.5 0h.29A1.72 1.72 0 0 0 22 17.58V13.4a2.69 2.69 0 0 0-.48-1.53zM3.5 14V4.5h12V14zm5.25 6.5A1.25 1.25 0 1 1 10 19.25a1.25 1.25 0 0 1-1.25 1.25zm8.5 0a1.25 1.25 0 1 1 1.25-1.25 1.25 1.25 0 0 1-1.25 1.25zm3.25-2.92a.21.21 0 0 1-.21.21h-.72a2.73 2.73 0 0 0-4.64 0h-3.86a2.73 2.73 0 0 0-4.64 0H6a.21.21 0 0 1-.21-.21V15.5H16a1 1 0 0 0 1-1V8.76a1.13 1.13 0 0 1 .85.49l2.44 3.48a1.13 1.13 0 0 1 .21.67z">
    </path>
</svg>