<svg xmlns="http://www.w3.org/2000/svg" width="48px" height="48px" viewBox="0 0 40 40" color="black" class="dscq dsbb">
	<path d="M35.22 10.18L21.41 5.9a3.71 3.71 0 0 0-2.14 0L4.81 10a1.77 1.77 0 0 0-1.26 1.69V29a1.74 1.74 0 0 0 1.22 1.67l14.38 4.51a3.55 3.55 0 0 0 1.12.18 3.66 3.66 0 0 0 1.13-.18l13.83-4.36a1.74 1.74 0 0 0 1.22-1.67v-17.3a1.74 1.74 0 0 0-1.23-1.67zM19.68 7.32a2.21 2.21 0 0 1 .62-.09 2.18 2.18 0 0 1 .67.1l12.22 3.79-4.72 1.49-13-4.08zM21 15a2.22 2.22 0 0 1-1.35 0L6.9 11l6-1.71L26 13.4zM5.22 29.24a.26.26 0 0 1-.17-.24V12l14.1 4.42a3.15 3.15 0 0 0 .44.11v17.22zm29.56.15l-13.69 4.32V16.49l.31-.08 7.07-2.23 6.45-2v17a.25.25 0 0 1-.14.21zm-7.37-2.28a.77.77 0 0 1-.54-.22L24.06 24a.75.75 0 0 1 1.07-1l2.14 2.2 4-6.75a.76.76 0 0 1 1-.26.74.74 0 0 1 .26 1l-4.52 7.59a.73.73 0 0 1-.55.36z">
	</path>
</svg>
