<svg xmlns="http://www.w3.org/2000/svg"  width="48px" height="48px" viewBox="0 0 24 24" color="#343434">
<path d="M20.12 4.79h-2.37V3.56a.75.75 0 1 0-1.5 0v1.23h-8.5V3.56a.75.75 0 0 0-1.5 0v1.23H3.88a.88.88 0 0 0-.88.88v14.45a.87.87 0 0 0 .88.88h16.24a.87.87 0 0 0 .88-.88V5.67a.88.88 0 0 0-.88-.88zM19.5 19.5h-15V6.29h1.75v1.13a.75.75 0 0 0 1.5 0V6.29h8.5v1.13a.75.75 0 1 0 1.5 0V6.29h1.75zM8.11 11.64A1.11 1.11 0 1 1 7 10.52a1.11 1.11 0 0 1 1.11 1.12zm5 0A1.12 1.12 0 1 1 12 10.52a1.12 1.12 0 0 1 1.09 1.12zm5 0A1.11 1.11 0 1 1 17 10.52a1.11 1.11 0 0 1 1.1 1.12zm-10 4A1.11 1.11 0 1 1 7 14.52a1.11 1.11 0 0 1 1.11 1.12zm5 0A1.12 1.12 0 1 1 12 14.52a1.12 1.12 0 0 1 1.09 1.12zm5 0A1.11 1.11 0 1 1 17 14.52a1.11 1.11 0 0 1 1.1 1.12z"></path>
</svg>