<svg xmlns="http://www.w3.org/2000/svg" width="48px" height="48px" viewBox="0 0 40 40" color="#343434"><path d="M13.911 19.1a1.5 1.5 0 1 1-1.5-1.5 1.5 1.5 0 0 1 1.5 1.5zm4.52-1.5a1.5 1.5 0 1 0 1.5 1.5 1.5 1.5 0 0 0-1.5-1.5zm-6.02 5.135a1.5 1.5 0 1 0 1.5 1.5 1.5 1.5 0 0 0-1.5-1.499zm6.02 0a1.5 1.5 0 1 0 1.5 1.5 1.5 1.5 0 0 0-1.5-1.499zm6.021-5.135a1.5 1.5 0 1 0 1.5 1.5 1.5 1.5 0 0 0-1.5-1.5zM12.411 27.833a1.5 1.5 0 1 0 1.5 1.5 1.5 1.5 0 0 0-1.5-1.5zm6.02 0a1.5 1.5 0 1 0 1.5 1.5 1.5 1.5 0 0 0-1.5-1.5zm6.021 0a1.5 1.5 0 1 0 1.5 1.5 1.5 1.5 0 0 0-1.5-1.5zm11.718-3.581l-2.491 3.723-1.246-.834 1.442-2.155h-3.931v8.045A1.969 1.969 0 0 1 27.975 35H5.127a1.794 1.794 0 0 1-1.794-1.793V10.154a1.793 1.793 0 0 1 1.794-1.793h2.822a3.77 3.77 0 0 1 7.5 0h3.873a3.77 3.77 0 0 1 7.5 0h1.149a1.968 1.968 0 0 1 1.969 1.969v11.656h-1.5v-6.125H8.382V33.5h19.593a.47.47 0 0 0 .469-.469v-8.045h-5.369v-1.5h10.668l-1.292-1.756 1.209-.889zM20.824 8.361h4.5a2.286 2.286 0 0 0-4.5 0zm-11.375 0h4.5a2.286 2.286 0 0 0-4.5 0zm-1.067 6h20.062V10.33a.469.469 0 0 0-.469-.469h-1.289a3.784 3.784 0 0 1-3.611 2.695v-1.5a2.284 2.284 0 0 0 2-1.195h-9.764a3.784 3.784 0 0 1-3.611 2.695v-1.5a2.284 2.284 0 0 0 2-1.195H8.382zm-1.5 1.5H4.833v17.346a.294.294 0 0 0 .294.293h1.755zm0-6H5.127a.294.294 0 0 0-.294.293v4.207h2.049z"></path></svg>