<svg xmlns="http://www.w3.org/2000/svg" width="48px" height="48px" viewBox="0 0 24 24" color="#343434"><path d="M20.75 13.6h-.56v-.27a4.4 4.4 0 0 0-2.49-4.05L21.47 5a.75.75 0 0 0-.06-1 .76.76 0 0 0-1.06 0L16 9a3.91 3.91 0 0 0-1.23.26L17 3a.75.75 0 0 0-1.42-.49l-2.12 6a5.69 5.69 0 0 0-2.88-.8 6.27 6.27 0 0 0-6.11 5.89H3.25a.77.77 0 0 0-.76.85 9.57 9.57 0 0 0 4.8 7.45.78.78 0 0 0 .39.1h8.64a.78.78 0 0 0 .39-.1 9.57 9.57 0 0 0 4.8-7.45.77.77 0 0 0-.76-.85zM10.53 9.21a4.35 4.35 0 0 1 3 1.19l.74.68.91-.42a2.41 2.41 0 0 1 1-.22 2.76 2.76 0 0 1 2.59 2.89 1.85 1.85 0 0 1 0 .23H6a4.76 4.76 0 0 1 4.53-4.35zm5.6 11.29H7.87a8 8 0 0 1-3.77-5.4h15.8a8 8 0 0 1-3.77 5.4z"></path></svg>