<svg xmlns="http://www.w3.org/2000/svg" width="48px" height="48px" viewBox="0 0 24 24" color="#343434"><path d="M14.769 13.5a1.813 1.813 0 0 1-.514 1.482 2.53 2.53 0 0 1-1.053.623v1.411H11.7v-1.411a2.543 2.543 0 0 1-1.8-2.424h1.5a1.05 1.05 0 0 0 1.049 1.05 1.038 1.038 0 0 0 .742-.308.316.316 0 0 0 .084-.263.5.5 0 0 0-.219-.358l-2.029-1.31a2.008 2.008 0 0 1-.895-1.457 1.812 1.812 0 0 1 .515-1.484 2.53 2.53 0 0 1 1.053-.622V7.018h1.5V8.43a2.544 2.544 0 0 1 1.8 2.424h-1.5a1.049 1.049 0 0 0-1.792-.742.317.317 0 0 0-.083.264.492.492 0 0 0 .218.356l2.029 1.311a2.007 2.007 0 0 1 .897 1.457zM2 9.02v1.5h6v-1.5zm17.841-4.752H4.159A2.159 2.159 0 0 0 2 6.427V7.52h1.5V6.427a.66.66 0 0 1 .659-.659h15.682a.66.66 0 0 1 .659.659v11.146a.66.66 0 0 1-.659.66H4.159a.66.66 0 0 1-.659-.66V13.52H6v-1.5H2v5.553a2.16 2.16 0 0 0 2.159 2.16h15.682A2.16 2.16 0 0 0 22 17.573V6.427a2.159 2.159 0 0 0-2.159-2.159z"></path></svg>