<svg xmlns="http://www.w3.org/2000/svg" width="48px" height="48px" viewBox="0 0 24 24" color="black" class="dsbq dsaz">
    <path
        d="M12 9.06A2.94 2.94 0 1 1 9.06 12 2.94 2.94 0 0 1 12 9.06m0-1.5A4.44 4.44 0 1 0 16.44 12 4.44 4.44 0 0 0 12 7.56zm.78-4.06l.07.56a2.56 2.56 0 0 0 2.54 2.24 2.59 2.59 0 0 0 1.51-.49l.53-.4 1.13 1.13-.35.46a2.56 2.56 0 0 0 1.63 4.09l.66.1v1.6l-.56.07a2.56 2.56 0 0 0-1.75 4l.4.53-1.13 1.13-.46-.31a2.56 2.56 0 0 0-4.09 1.63l-.1.66h-1.6l-.07-.56a2.56 2.56 0 0 0-2.53-2.24 2.59 2.59 0 0 0-1.51.49l-.53.4-1.13-1.13.35-.46a2.56 2.56 0 0 0-1.63-4.09l-.66-.1v-1.6l.56-.07A2.56 2.56 0 0 0 5.81 7.1l-.4-.53 1.13-1.13.46.35a2.56 2.56 0 0 0 4.09-1.63l.1-.66h1.6M14.11 2H9.89L9.6 3.93a1.06 1.06 0 0 1-1.69.67L6.42 3.44l-3 3L4.6 8a1.06 1.06 0 0 1-.72 1.67L2 9.89v4.22l1.93.29a1.05 1.05 0 0 1 .67 1.69l-1.16 1.49 3 3L8 19.4a1 1 0 0 1 .62-.2 1.05 1.05 0 0 1 1.05.92L9.89 22h4.22l.29-1.93a1.06 1.06 0 0 1 1.69-.67l1.49 1.16 3-3L19.4 16a1.06 1.06 0 0 1 .72-1.67l1.88-.22V9.89l-1.93-.29a1.05 1.05 0 0 1-.67-1.69l1.16-1.49-3-3L16 4.6a1 1 0 0 1-.62.2 1.05 1.05 0 0 1-1.05-.92L14.11 2z">
    </path>
</svg>